# xmcd CD database file
#
# Track frame offsets:
#	150
#	22127
#	32558
#	44415
#	55088
#	62527
#	71109
#	76762
#	80116
#	92724
#	94504
#	103951
#	111544
#	119367
#	130146
#	141811
#	148337
#	161182
#	173585
#	183828
#
# Disc length: 2485 seconds
#
# Revision: 0
# Processed by: cddbd v1.5.2PL0 Copyright (c) Steve Scherf et al.
# Submitted via: CDex 1.75
#
DISCID=1f09b314
DTITLE=Alexandru Andries - Disc domestic
DYEAR=2016
DGENRE=Jazz
TTITLE0=zile ore
TTITLE1=opt martie
TTITLE2=cum stam de fapt
TTITLE3=de-aia stau si-astept
TTITLE4=n-am nici o vina
TTITLE5=blues domestic
TTITLE6=romeo si julieta
TTITLE7=reclama mare
TTITLE8=masina de spalat
TTITLE9=reclama mica
TTITLE10=cintecul cafelei
TTITLE11=cartofi prajiti
TTITLE12=ce fac femeile
TTITLE13=manual de intrebuintare
TTITLE14=nu-s bun pentru tine
TTITLE15=portretul unei doamne
TTITLE16=reteta sigura
TTITLE17=hai sa ciocnim
TTITLE18=gata pentru cimitir
TTITLE19=pa pa pa 
EXTD=YEAR: 2016
EXTT0=
EXTT1=
EXTT2=
EXTT3=
EXTT4=
EXTT5=
EXTT6=
EXTT7=
EXTT8=
EXTT9=
EXTT10=
EXTT11=
EXTT12=
EXTT13=
EXTT14=
EXTT15=
EXTT16=
EXTT17=
EXTT18=
EXTT19=
PLAYORDER=
